# xmcd
#
# Track frame offsets:
#	150
#	26055
#	41631
#	59073
#	76091
#	97226
#	117170
#	133592
#	151993
#	172421
#	208253
#	227086
#	245058
#	262048
#	276795
#
# Disc length: 4001 seconds
#
# Revision: 1
# Processed by: cddbd v1.5.2PL0 Copyright (c) Steve Scherf et al.
# Submitted via: EasyCDDAExtractor 2010.6.0.0
#
DISCID=e40f9f0f
DTITLE=Various Artist - Les Fleurs: The Minnie Riperton Anthology
DYEAR=1900
DGENRE=R&B
TTITLE0=Rotary Connection feat. Minnie Riperton - I Am The Black Gold Of The S
TTITLE0=un
TTITLE1=Minnie Riperton - Reasons
TTITLE2=Minnie Riperton - Every Time He Comes Around
TTITLE3=Minnie Riperton - Young, Willing And Able
TTITLE4=Minnie Riperton - Inside My Love
TTITLE5=Minnie Riperton - Memory Lane
TTITLE6=Minnie Riperton - Love Hurts
TTITLE7=Minnie Riperton feat. Pablo bryson - Here We Go
TTITLE8=Minnie Riperton - You Take My Breath Away
TTITLE9=Minnie Riperton - Strange Affair
TTITLE10=Minnie Riperton - Take A Little Trip
TTITLE11=Minnie Riperton - I'm A Woman
TTITLE12=Minnie Riperton - Lovin' You
TTITLE13=Minnie Riperton - Les Fleur
TTITLE14=Minnie Riperton feat. Jose Feliciano - Light My Fire
EXTD=
EXTT0=
EXTT1=
EXTT2=
EXTT3=
EXTT4=
EXTT5=
EXTT6=
EXTT7=
EXTT8=
EXTT9=
EXTT10=
EXTT11=
EXTT12=
EXTT13=
EXTT14=
PLAYORDER=
